# xmcd
#
# Track frame offsets:
#	150
#	15916
#	29923
#	42827
#	58554
#	74626
#	94832
#	105949
#	122883
#	140365
#	165596
#	183345
#	202988
#	221374
#	239199
#	254258
#	269856
#	286259
#
# Disc length: 4037 seconds
#
# Revision: 1
# Processed by: cddbd v1.5.2PL0 Copyright (c) Steve Scherf et al.
# Submitted via: audiograbber 1.83.01
#
DISCID=0f0fc312
DTITLE=Toby Keith - 35 Biggest Hits
DYEAR=2008
DGENRE=Country
TTITLE0=Should've Been A Cowboy
TTITLE1=He Ain't Worth Missing
TTITLE2=A Little Less Talk and A Lot More Action
TTITLE3=Wish I Didn't Know Now
TTITLE4=Who's That Man
TTITLE5=Upstairs Downtown
TTITLE6=You Ain't Much Fun
TTITLE7=Big Ol' Truck
TTITLE8=Does That Blue Moon Ever Shine
TTITLE9=A Woman's Touch
TTITLE10=Me Too
TTITLE11=We Were In Love
TTITLE12=I'm So Happy I Can't Stop Crying)
TTITLE13=Dream Walkin'
TTITLE14=Getcha Some
TTITLE15=How Do You Like Me Now?!
TTITLE16=Country Comes To Town
TTITLE17=You Shouldn't Kiss Me Like This
EXTD=
EXTT0=
EXTT1=
EXTT2=
EXTT3=
EXTT4=
EXTT5=
EXTT6=
EXTT7=
EXTT8=
EXTT9=
EXTT10=
EXTT11=
EXTT12=
EXTT13=
EXTT14=
EXTT15=
EXTT16=
EXTT17=
PLAYORDER=
